<svg xmlns="http://www.w3.org/2000/svg" viewBox="0 0 625.5 896.4">
    <defs>
        <style>.cls-1{fill:none;stroke:#fff;stroke-miterlimit:10;stroke-width:25px;}.cls-2{fill:#fcfcfc;}</style>
    </defs>
    <g>
        <line class="cls-1" x1="12.5" x2="12.5" y2="601" />
        <line class="cls-1" x1="112.58" x2="112.58" y2="601" />
        <line class="cls-1" x1="212.67" x2="212.67" y2="601" />
        <line class="cls-1" x1="312.75" x2="312.75" y2="601" />
        <line class="cls-1" x1="412.83" x2="412.83" y2="601" />
        <line class="cls-1" x1="512.92" x2="512.92" y2="601" />
        <line class="cls-1" x1="613" x2="613" y2="601" />
        <line class="cls-1" x1="513" y1="100.5" x2="413" y2="200.5" />
        <line class="cls-1" x1="213" y1="400.5" x2="113" y2="501.5" />
    </g>
    <g>
        <path class="cls-2" d="M793.17,772.84c0,.92-1.83,2-2.54,2.44l.1,5.39h7.52c.71-.81,2.24-3.36,3.56-3.36s7.93,4.37,7.93,5.69c0,1-1.32,1.63-2.14,2.13v9a46.55,46.55,0,0,0,.41,5.39,41,41,0,0,1-9.35,2L799,799H760.63l-1.83,1.42-3.56-5.59a53.42,53.42,0,0,0,11.39.61l.1-11.18h-6.81l-1.83,1.42-3.56-5.59a61.63,61.63,0,0,0,12.2.61v-5a12.55,12.55,0,0,0-.51-4.37,11.91,11.91,0,0,1-.61-1.73c0-.51.3-.61.71-.61,1.52,0,10.57,2.24,10.57,4,0,1-1.83,2-2.54,2.44v5.29h8.85V776.8a71.55,71.55,0,0,0-.51-8.13H755.44l-1.63,1.42c-.1,9.25,0,18.4-.3,27.55-.31,8.74-.71,17.28-2.85,25.82-1.63,6.51-6.41,12.4-11.18,17-.51.51-2.85,3.15-3.46,3.15a.54.54,0,0,1-.51-.51,1.11,1.11,0,0,1,.31-.81,69.85,69.85,0,0,0,5.69-13.73c3.56-12.81,3.56-25.42,3.56-38.63,0-7.63.1-15.35-.31-23-.1-1.32-.1-4-.71-5.19a1.6,1.6,0,0,1-.3-1.12c0-.3.41-.3.51-.3a43.18,43.18,0,0,1,7.22,2.54l3.76,2.24H801.4c.51-.51,3.86-4,4.78-4,1.22,0,7.32,5.29,7.32,6.41,0,.92-1.12,1.12-1.83,1.12H784.12C785.65,769.18,793.17,771.52,793.17,772.84Zm-34.36,57V809a12.05,12.05,0,0,0-.41-3.86,6.22,6.22,0,0,1-.61-1.93c0-.51.31-.61.81-.61,1.63,0,11.29,2.75,11.29,4.78,0,1-2.44,2-3.15,2.34v5.08h3.86c.51-.41,3.15-3.05,4-3.05,1.12,0,3.86,3.46,4.37,4.07a3,3,0,0,1,1,1.83c0,.61-.71.71-1.22.71h-12v13.83c1.52-.51,11.59-4.47,12.51-4.47.31,0,.61.1.61.51s-2,1.93-2.44,2.24a162.86,162.86,0,0,0-16,14.34l-4.78-9.25C758.81,833.85,758.81,832.52,758.81,829.88Zm21.65-65.58c-3.86,0-4.68-3.76-5.59-6.81-.1-.31-.92-1.53-1.12-1.93a15.55,15.55,0,0,0-1.52-2.24c-.6-.71-2-1.63-2.44-2.13-.1-.81.3-.71.71-.71,3.15,0,8.44,1.73,11.18,3.15A6,6,0,0,1,785,759C785,761.56,783.31,764.3,780.46,764.3Zm2.75,31.11V784.23h-8.85v11.18Zm17.89,14.24a10.5,10.5,0,0,0,2.14-2.95c.1-.31.3-.71.71-.71,1.63,0,7.32,6.91,7.32,8.24,0,1-3.15,1-3.66,1-5.49,2.85-11.18,5.29-16.78,7.73v10.47a3.45,3.45,0,0,0,.41,2c.41.61,3.86.71,4.58.71,1.83,0,3.66-.1,5.59-.2,1.73,0,2.85,0,4.07-1.53.92-1.12,2.44-6.71,2.75-7.93.2-.81.81-4,1.22-4s.71.2.71.61v3.36c0,2.24.1,7,2.64,8l1.52.61a15.81,15.81,0,0,1-2.13,6c-2,3.05-9.46,3.05-12.81,3.05-4,0-11.49.3-15-1.93-1.73-1.22-2-3.76-2-5.69V808.75a14.76,14.76,0,0,0-.41-4.27,6.57,6.57,0,0,1-.61-1.83c0-.51.3-.61.81-.61,2,0,11.39,2.64,11.39,5.08,0,1-2,1.93-2.75,2.34v10.37C794.39,816.56,798.26,813.51,801.1,809.65ZM799,795.41V784.23h-8.23v11.18Z" transform="translate(-640.05 -90.5)" />
        <path class="cls-2" d="M1094.13,778.84l-3.66-5.49c2,.2,4.27.61,6.3.61h5.08V759c0-1.83-.1-5.29-.71-6.91a5.13,5.13,0,0,1-.51-1.63c0-.61.51-.61,1-.61,1.32,0,11,2.95,11,4.27,0,.71-2.44,2.34-3,2.64V774h2.24c.71-.81,2.85-3.86,4-3.86s4.07,3.86,4.88,4.68a3.3,3.3,0,0,1,1,1.83c0,.81-1.12.92-1.63.92h-10.47V788.4c3.76,2.13,10.27,5.39,10.27,10.37,0,2-1.42,4.17-3.56,4.17-3.35,0-3.46-3.56-4.07-6a19.25,19.25,0,0,0-2.64-6.1v41c0,3.35.3,6.91.51,10.27a44.9,44.9,0,0,1-9,3.35c.2-3.66.61-7.52.61-11.29v-30a161.72,161.72,0,0,1-8.34,14.74c-.41.51-1.93,3.35-2.54,3.35a.67.67,0,0,1-.61-.71,47.67,47.67,0,0,1,1.32-4.68c1.83-6,3.56-12.1,5-18.2,1.73-7,3-14,4.07-21.15h-4.88ZM1120,834.25V813.31c0-1.22-.2-5.39-.61-6.3a11.35,11.35,0,0,1-.92-2.34.71.71,0,0,1,.71-.81,5.89,5.89,0,0,1,2.13.71,44.77,44.77,0,0,0,7.52,2.64l26.13.1c.3-.41,2.75-3.46,3.56-3.46s6.1,4,6.71,4.47c.41.31,1.12.81,1.12,1.32s-2.34,2.24-2.75,2.64v27.15c0,4.78-7.22,6.41-11,6.81-.1-3-1.22-5.49-4.37-6.3-.51-.2-3-.51-3-1.22s.31-.81.92-.81c2,0,4.17.41,6.3.41,2.75,0,3.25-1.12,3.25-3.66V810.87h-27.15l-1.32,1.32v22.57c0,2.64.3,5.39.41,8a28.67,28.67,0,0,1-8.24,2.64C1119.54,841.78,1120,837.91,1120,834.25Zm5.69-59.27-1.83,1.32-3.56-5.49c2,.2,4.17.61,6.2.61h7.73a71.65,71.65,0,0,0,4.37-10.88c-4.78.1-9.66.3-14.44.3-.71,0-4.17.31-4.17-.51,0-1,3.56-1.32,4.37-1.53,8.64-1.83,19.62-3.76,27.55-7.93.61-.31,1.63-1.32,2.34-1.32.41,0,.92.81,1,1a22.11,22.11,0,0,0,2.44,2.85c1.22,1.22,4.88,4.37,4.88,6a.54.54,0,0,1-.61.61,19.05,19.05,0,0,1-3-.81,140.11,140.11,0,0,1-14.54.92c1.22.71,5.19,2.74,5.19,4.07,0,.81-2.24,1.32-2.75,1.42l-4.07,5.8h13.83c.51-.51,3.76-4.17,4.58-4.17,1.22,0,6.2,5.59,6.2,6.81,0,.71-1,.91-1.63.91h-16.57a63.43,63.43,0,0,0,12.4,10.37,56.8,56.8,0,0,0,9.15,4.88c.3.2.71.41.71.81s-2,.92-2.44,1a22.14,22.14,0,0,0-7.52,3.86c-1.93-1.93-3.66-4-5.39-6l-1.63.92v6.1c0,2,.31,4.07.41,6.1-2.44,1-5,1.22-7.42,1.83l.3-3.46h-12.71v1.53a33.39,33.39,0,0,1-6.91,1.93c.1-2.34.41-4.88.41-7.22V788c-1.32,1.12-8.34,6.91-9.15,6.91-.3,0-.41-.3-.41-.61,0-.71,1.42-2.34,1.93-2.85A168.07,168.07,0,0,0,1132.24,775h-6.6Zm18.81,56.73h-6.71v2.13a24.53,24.53,0,0,1-6.61,1.63c.2-2.24.51-4.58.51-6.81v-8.44a11.28,11.28,0,0,0-.51-3.66,5.69,5.69,0,0,1-.51-1.73c0-.41.41-.51.71-.51.51,0,6.3,2.54,7.12,2.85h5.29a25.07,25.07,0,0,1,2.64-3,8.08,8.08,0,0,1,1.63.92c.71.51,5.08,3.05,5.08,4.17,0,.61-2,2.13-2.34,2.44v5.49c0,2,.1,4.07.2,6.1a31.38,31.38,0,0,1-6.71,1.73Zm-8.64-45.85h11.39c.31-.41,1.93-2.44,2.34-2.44a12,12,0,0,1,2.75,1.42c-2-3.25-3.66-6.61-5.69-9.86H1140a94.59,94.59,0,0,1-7.63,9.25Zm12,12.2v-8.95h-12.1l-.61.92v8Zm-3.36,30.3v-7.83h-6.2l-.51.71v7.12Z" transform="translate(-640.05 -90.5)" />
        <path class="cls-2" d="M734.8,939.85c5.16,1,7.2,2.15,7.2,3.15-.77,1.37-2.34,7.56-2.93,13.84Q737.83,976,739,978.1c.77,1.36,2.22,2,4.36,2q8.71,0,20.46-11.47c.65-.59,1.1-.89,1.33-.89s.44.18.44.53q-.09,1.33-4.45,6.67-9.43,10.5-17.43,10.5a9.16,9.16,0,0,1-6.4-2.49,6.1,6.1,0,0,1-.89-.89q-3.28-3.74-1.42-22.68.45-12.09-.89-16.9a4.59,4.59,0,0,1-.53-1.78.89.89,0,0,1,1-.89h.26Z" transform="translate(-640.05 -90.5)" />
        <path class="cls-2" d="M872.93,961.29a46.56,46.56,0,0,0-6.23,2.4,4.11,4.11,0,0,1-1.69.62c-1.19-.06-2.22-.89-3.11-2.49a6.56,6.56,0,0,1-1.33-3.65c.06-.59.36-.89.89-.89a5.45,5.45,0,0,1,1.16.27q3.28.72,12.19-1c.47-1.54.92-2.88,1.33-4a28,28,0,0,0,.71-9.87c.06-.59-3.84-1.7,1-.89a9.32,9.32,0,0,1,3.11,1q3.64,1.79,3.65,4.18a2.5,2.5,0,0,1-.8,1.42c-1.13,1.07-2.31,3.47-3.56,7.2q5.87-1.15,6.14-1.16a4.27,4.27,0,0,1,4,2.67q2.85,6.95-4.36,20.81-5,8.36-8.45,8.36a2.22,2.22,0,0,1-1.87-1.16,13.39,13.39,0,0,1-.8-2.4,13.42,13.42,0,0,0-1.69-3.82,2,2,0,0,1-.27-.8.47.47,0,0,1,.53-.53l4.89,2.31q3.28-.09,7-9.7a24.32,24.32,0,0,0,2-8.89c-.06-2.31-.8-3.47-2.22-3.47L880.41,959a9.45,9.45,0,0,1-2,.71l-1.6,2.76q-2.76,7.13-10.05,19.48c-2,3.32-3.82,5-5.43,5s-2.31-.65-2.31-1.78a3.26,3.26,0,0,1,.8-2.4Q868,974.46,872.93,961.29ZM906.19,968q-3.65-2.76-4.18-2.76a2.19,2.19,0,0,0-1-.36c-1.78-.36-2.67-.71-2.67-1.07s.71-.71,2.13-.71,2.22-.47,2.22-1.25a7.78,7.78,0,0,0-1.78-3.29,14.64,14.64,0,0,0-4.09-3.47c-1.31-.95-2-1.54-2-1.78.06-.41.44-.62,1.16-.62a17.37,17.37,0,0,1,4.36,1.16,16.93,16.93,0,0,1,6.94,5.34,9.33,9.33,0,0,1,2.22,6.14c-.06,2.08-.74,3.11-2,3.11A3.38,3.38,0,0,1,906.19,968Z" transform="translate(-640.05 -90.5)" />
        <path class="cls-2" d="M998.25,947.06c0-.71-.21-2.85-.62-6.4.06-.65.38-1,1-1a6.58,6.58,0,0,1,2.58,1.25,27.08,27.08,0,0,1,2.85,2.67,5.12,5.12,0,0,1,1.33,2.13c0,.48-.36.92-1.07,1.33a6.79,6.79,0,0,0-1.87,2,5.49,5.49,0,0,0-1.16,2q-5.87,11.65-1.6,25.53a34,34,0,0,1,1.42-4.71c.65-2.85,1.25-4.27,1.78-4.27s.71.44.71,1.16a2.59,2.59,0,0,0-.18,1q-.79,3.92.8,14.68c-.06,1-.56,1.51-1.51,1.51q-2-.09-3.56-2.58a5.51,5.51,0,0,1-.71-1.07q-5.25-10.23-2-27.31C997.6,949.73,998.19,947.06,998.25,947.06Zm27.66,3.65a11.44,11.44,0,0,0,6.23-3.65,1.57,1.57,0,0,1,.71-.45c.59.06,1.07.62,1.42,1.69a14.84,14.84,0,0,1,.27,1.6q-.09,2.13-3.29,3.56a32.86,32.86,0,0,1-5.07,1.78q.09,7.38.71,17.61,6.85,1.88,8.72,4.8a3.44,3.44,0,0,1,.71,2.05q-.09,2.4-2.31,2.4a3.24,3.24,0,0,1-1.87-.62,23.72,23.72,0,0,0-5.16-3.91q-.63,3.82-2.31,5.42-2.31,2.22-7.21,2.22c-2.79-.06-4.83-.56-6.14-1.51a5,5,0,0,1-1.69-4.09,5.68,5.68,0,0,1,2.49-4.89q1.78-1.61,10.32-2.4l-.18-16.54q-8.53-.18-10.41-.71c-1.3-.65-2-1.19-2-1.6s1-.56,2.85-.62a52.5,52.5,0,0,0,9.25-1.33c-.59-5.22-.22-8-2-10.51-.18-.12,0,.18,0,0,0-.53,2.11-2,3-2,1.66.06.16.53,2.47,2,1.19.83,2.53.46,2.53,1a15.51,15.51,0,0,0-2.09,7.55v1.15ZM1013,976.77a2.8,2.8,0,0,0-1.6,2.58,2.75,2.75,0,0,0,2.4,2.94,8.85,8.85,0,0,0,5.6-.36,4.69,4.69,0,0,0,2.4-3.38,8.12,8.12,0,0,0,.27-2.31C1017.88,975.88,1014.85,976.05,1013,976.77ZM1036.5,942q5.52.79,7.38,2.4a3.21,3.21,0,0,1,1.25,2.67q0,2.67-2.13,2.58a7.7,7.7,0,0,1-1.87-.8q-5.25-3.74-6.94-6.67a1.08,1.08,0,0,1,.89-.44A2.66,2.66,0,0,1,1036.5,942Zm6.58-6.76q3.83.72,4.71,2.13a3.33,3.33,0,0,1,.8,2.31,2.39,2.39,0,0,1-.53,1.6,2,2,0,0,1-1.25.62c-.48-.06-2.4-1.33-5.78-3.82a17.22,17.22,0,0,1-3.29-2.85c0-.36.44-.53,1.33-.53A17.78,17.78,0,0,1,1043.08,935.23Z" transform="translate(-640.05 -90.5)" />
        <path class="cls-2" d="M1148,940c5.16,1,4,.63,3,5-1,3-1.48,5.56-2.08,11.84q-1.25,19.13-.09,21.26c.77,1.36,2.22,2,4.36,2q8.71,0,20.46-11.47c.65-.59,1.1-.89,1.33-.89s.44.18.44.53q-.09,1.33-4.45,6.67-9.43,10.5-17.43,10.5a9.14,9.14,0,0,1-6.4-2.49,6.1,6.1,0,0,1-.89-.89q-3.29-3.74-1.42-22.68.45-12.09-.89-16.9c-.36-.77.06-1.11.06-1.52a1,1,0,0,1,1-1h3Z" transform="translate(-640.05 -90.5)" />
        <path class="cls-2" d="M732.3,942.26l.1-13.18.73,0a28.66,28.66,0,0,0,3.19,7.93q3.48,5.36,8.75,5.35a8.08,8.08,0,0,0,6.06-2.46,8.53,8.53,0,0,0,2.39-6.22,11.21,11.21,0,0,0-.53-3.32,9.45,9.45,0,0,0-1.42-2.9,10.69,10.69,0,0,0-2.6-2.39,50.13,50.13,0,0,0-5.12-2.9,50.66,50.66,0,0,1-4.64-2.58,13.68,13.68,0,0,1-2.6-2.14,10.44,10.44,0,0,1-2.74-7.31,12.73,12.73,0,0,1,1.07-5.11,12.31,12.31,0,0,1,3-4.21,11.45,11.45,0,0,1,8-3.13,12.15,12.15,0,0,1,2.78.3,23.19,23.19,0,0,1,3.42,1.2c1.06.43,1.79.7,2.17.81a3.39,3.39,0,0,0,1,.17c.74,0,1.25-.54,1.5-1.63h.73l.22,12.67H757c-.57-2-1.07-3.57-1.48-4.64a17.24,17.24,0,0,0-1.48-3,11.54,11.54,0,0,0-3.44-3.69,7.87,7.87,0,0,0-4.33-1.2,7,7,0,0,0-5.64,2.43,7.54,7.54,0,0,0-1.35,2.33,7.68,7.68,0,0,0-.49,2.68q0,5.34,6.85,8.59l4.49,2.17a20.28,20.28,0,0,1,7.49,5.43,12.14,12.14,0,0,1,2.61,7.73,13.66,13.66,0,0,1-1.18,5.6,12.57,12.57,0,0,1-5,5.75,14.71,14.71,0,0,1-7.82,2,19.84,19.84,0,0,1-7.92-1.63c-1.32-.57-2.11-.9-2.36-1a2.88,2.88,0,0,0-.86-.13,2.12,2.12,0,0,0-2.11,1.53h-.74Z" transform="translate(-640.05 -90.5)" />
        <path class="cls-2" d="M789.72,897.54V919.4a18.21,18.21,0,0,1,2-2.14,8.69,8.69,0,0,1,2.07-1.34,11.9,11.9,0,0,1,5.3-1.15,11.77,11.77,0,0,1,6.22,1.5A5.86,5.86,0,0,1,807.7,919a13.43,13.43,0,0,1,.65,4.83v9.31l0,2.42a13.53,13.53,0,0,0,.26,3.17,3.27,3.27,0,0,0,1,1.67,6.65,6.65,0,0,0,3.29,1.31v.67h-14.1v-.67a9.59,9.59,0,0,0,2.4-.54,3.25,3.25,0,0,0,1.29-1.08,5.11,5.11,0,0,0,.8-2.17,27.08,27.08,0,0,0,.22-4v-10.1a15.08,15.08,0,0,0-.35-3.63,5.91,5.91,0,0,0-1.18-2.33,5.74,5.74,0,0,0-4.59-1.88q-7.71,0-7.71,12.18v5.1l0,2.36a14.24,14.24,0,0,0,.25,3.17,3.27,3.27,0,0,0,1,1.67,6.61,6.61,0,0,0,3.28,1.31v.67h-14.1v-.67a8.14,8.14,0,0,0,2.74-.72,3.28,3.28,0,0,0,1.34-1.58,6.93,6.93,0,0,0,.49-2.21c.1-1,.14-2.42.14-4.29v-25a43.56,43.56,0,0,0-.16-4.59,5.14,5.14,0,0,0-.7-2.17,3.24,3.24,0,0,0-1.31-1.27,6.16,6.16,0,0,0-2.2-.48v-.7Z" transform="translate(-640.05 -90.5)" />
        <path class="cls-2" d="M831.11,915.93l9.19-1.15v18.38l0,2.42a13.53,13.53,0,0,0,.26,3.17,3.39,3.39,0,0,0,1,1.67,6.56,6.56,0,0,0,3.29,1.3v.67H830.76v-.67a8.43,8.43,0,0,0,2.74-.71,3.3,3.3,0,0,0,1.34-1.57,6.86,6.86,0,0,0,.49-2.21c.1-1,.14-2.41.14-4.27v-7.84a43.3,43.3,0,0,0-.16-4.59,5,5,0,0,0-.7-2.14,3.44,3.44,0,0,0-1.31-1.29,5.74,5.74,0,0,0-2.2-.49v-.68Zm6.66-12.61a2.87,2.87,0,0,1-2.07-.8,2.84,2.84,0,0,1,0-4,3,3,0,0,1,4.1,0,2.84,2.84,0,0,1,0,4A2.79,2.79,0,0,1,837.77,903.32Z" transform="translate(-640.05 -90.5)" />
        <path class="cls-2" d="M872.48,929.49l5.8-6.35a25.31,25.31,0,0,0,2.39-3,3.72,3.72,0,0,0,.61-2,1.92,1.92,0,0,0-1.41-1.89,8.27,8.27,0,0,0-2.28-.35v-.7h12.29v.7a7.75,7.75,0,0,0-3.76.79,17.53,17.53,0,0,0-3.76,3.29l-1.28,1.44-3.47,3.73,8.22,9.26c.68.75,1.13,1.22,1.34,1.44l1.43,1.47q1.73,1.71,2.49,2.34a11.48,11.48,0,0,0,1.82,1.2,8.18,8.18,0,0,0,3.12.79v.67h-15v-.67a5,5,0,0,0,1.9-.44,1.5,1.5,0,0,0,.77-1.33,3,3,0,0,0-.93-1.93l-.67-.77-7.71-8.55-1.94,2.13v2.32l0,2.42a13.53,13.53,0,0,0,.26,3.17,3.27,3.27,0,0,0,1,1.67,6.65,6.65,0,0,0,3.29,1.31v.67H862.94v-.67a8.14,8.14,0,0,0,2.74-.72,3.28,3.28,0,0,0,1.34-1.58,6.93,6.93,0,0,0,.49-2.21c.1-1,.14-2.42.14-4.29v-25a43.56,43.56,0,0,0-.16-4.59,5.14,5.14,0,0,0-.7-2.17,3.24,3.24,0,0,0-1.31-1.27,6.16,6.16,0,0,0-2.2-.48v-.7l9.19-1.15v32Z" transform="translate(-640.05 -90.5)" />
        <path class="cls-2" d="M939.25,939.29l.54.32c-.77,2.23-2.52,3.35-5.27,3.35a6.11,6.11,0,0,1-3.77-1.12,8.58,8.58,0,0,1-2-2.55,20.45,20.45,0,0,1-3.23,2.52,9.78,9.78,0,0,1-4.83,1.15,8.54,8.54,0,0,1-5.58-1.69,5.61,5.61,0,0,1-2.06-4.56,6.21,6.21,0,0,1,1.69-4.44,7.47,7.47,0,0,1,2.2-1.58,21.77,21.77,0,0,1,3.61-1.2c1.85-.47,3.22-.86,4.1-1.18a8.55,8.55,0,0,0,2.22-1.15,3.79,3.79,0,0,0,1.4-1.72,7.72,7.72,0,0,0,.38-2.74q0-3.74-1.4-5.46a4.66,4.66,0,0,0-1.64-1.28,4.8,4.8,0,0,0-2.09-.48,4.08,4.08,0,0,0-3.86,2.52l-.8,1.85a2.31,2.31,0,0,1-2.3,1.5,2.5,2.5,0,0,1-1.82-.72,2.41,2.41,0,0,1-.73-1.8c0-1.08.77-2,2.3-2.75a13.92,13.92,0,0,1,3.08-.94,18.73,18.73,0,0,1,3.6-.37,17.72,17.72,0,0,1,4.12.51,14.24,14.24,0,0,1,3.58,1.31,5.1,5.1,0,0,1,2.59,3.06,14,14,0,0,1,.26,3.22v11.81a20.43,20.43,0,0,0,.26,4.09,2.54,2.54,0,0,0,2.62,2.27,2.94,2.94,0,0,0,1.55-.35A5.65,5.65,0,0,0,939.25,939.29Zm-10.57-12.58a21.16,21.16,0,0,1-3.79,2.52,33.61,33.61,0,0,0-3.21,1.88,9,9,0,0,0-1.62,1.53,6.63,6.63,0,0,0-1.5,4.31,5.24,5.24,0,0,0,1.16,3.48,3.67,3.67,0,0,0,2.94,1.37,5,5,0,0,0,2.94-1,6,6,0,0,0,2.08-2.6,15.21,15.21,0,0,0,1-6.19v-5.33Z" transform="translate(-640.05 -90.5)" />
        <path class="cls-2" d="M965.51,918.79a11.76,11.76,0,0,1,2.55-2.46,10.7,10.7,0,0,1,5.86-1.56,12.59,12.59,0,0,1,8.45,3.09q4.46,3.79,4.46,10.71t-4.28,10.9a13.29,13.29,0,0,1-9.48,3.47,14.16,14.16,0,0,1-5.14-.83l-1.79-.73a3.67,3.67,0,0,0-1.31-.29c-1.08,0-2,.88-2.87,2.65h-1.28V906.3q0-3.57-1.13-5.12a4.41,4.41,0,0,0-3.81-1.55v-.77l9.77-1.34Zm0,9.66a48.6,48.6,0,0,0,.38,6.28,15.18,15.18,0,0,0,1,4.18,5.57,5.57,0,0,0,2.18,2.45,6.08,6.08,0,0,0,3.29.89,7.52,7.52,0,0,0,6.41-3.7,16.35,16.35,0,0,0,2.53-9.4,19.33,19.33,0,0,0-.83-5.69,13.39,13.39,0,0,0-2.35-4.58,8.92,8.92,0,0,0-2.67-2.37,6.08,6.08,0,0,0-3-.81,5.82,5.82,0,0,0-3.43,1.13,6.75,6.75,0,0,0-2.35,2.95C965.89,921.57,965.51,924.46,965.51,928.45Z" transform="translate(-640.05 -90.5)" />
        <path class="cls-2" d="M1033.3,939.29l.54.32c-.77,2.23-2.52,3.35-5.27,3.35a6.11,6.11,0,0,1-3.77-1.12,8.42,8.42,0,0,1-2-2.55,20.45,20.45,0,0,1-3.23,2.52,9.8,9.8,0,0,1-4.83,1.15,8.54,8.54,0,0,1-5.58-1.69,5.61,5.61,0,0,1-2.06-4.56,6.21,6.21,0,0,1,1.69-4.44,7.47,7.47,0,0,1,2.2-1.58,21.77,21.77,0,0,1,3.61-1.2c1.85-.47,3.22-.86,4.1-1.18a8.55,8.55,0,0,0,2.22-1.15,3.79,3.79,0,0,0,1.4-1.72,7.72,7.72,0,0,0,.38-2.74q0-3.74-1.4-5.46a4.66,4.66,0,0,0-1.64-1.28,4.8,4.8,0,0,0-2.09-.48,4.08,4.08,0,0,0-3.86,2.52l-.8,1.85a2.31,2.31,0,0,1-2.3,1.5,2.5,2.5,0,0,1-1.82-.72,2.41,2.41,0,0,1-.73-1.8c0-1.08.77-2,2.3-2.75a13.92,13.92,0,0,1,3.08-.94,18.73,18.73,0,0,1,3.6-.37,17.72,17.72,0,0,1,4.12.51,14.24,14.24,0,0,1,3.58,1.31,5.1,5.1,0,0,1,2.59,3.06,14,14,0,0,1,.26,3.22v11.81a21.5,21.5,0,0,0,.25,4.09,2.54,2.54,0,0,0,2.62,2.27,2.94,2.94,0,0,0,1.55-.35A5.48,5.48,0,0,0,1033.3,939.29Zm-10.56-12.58a21.16,21.16,0,0,1-3.79,2.52,33.61,33.61,0,0,0-3.21,1.88,8.64,8.64,0,0,0-1.62,1.53,6.63,6.63,0,0,0-1.5,4.31,5.24,5.24,0,0,0,1.16,3.48,3.67,3.67,0,0,0,2.94,1.37,5,5,0,0,0,2.94-1,6,6,0,0,0,2.08-2.6,15.21,15.21,0,0,0,1-6.19v-5.33Z" transform="translate(-640.05 -90.5)" />
        <path class="cls-2" d="M1052.42,942.38v-9h.51a17.7,17.7,0,0,0,2.23,5.3q2.44,3.61,5.73,3.61a5.26,5.26,0,0,0,3.47-1.21,4.69,4.69,0,0,0,1.59-3.8,5.58,5.58,0,0,0-1.15-3.51,7.43,7.43,0,0,0-1.61-1.47,37.15,37.15,0,0,0-3.26-1.88,22.05,22.05,0,0,1-5.35-3.57,6.72,6.72,0,0,1-1.91-4.72,7,7,0,0,1,1.92-5,7.63,7.63,0,0,1,5.84-2.36,7.82,7.82,0,0,1,3,.58l1.08.48a2.55,2.55,0,0,0,.89.19c.4,0,.79-.32,1.15-1h.64l.35,7.25h-.67a14.1,14.1,0,0,0-.75-2.46,7,7,0,0,0-1.13-1.79,7.39,7.39,0,0,0-2.29-1.9,5.49,5.49,0,0,0-2.58-.69,4.09,4.09,0,0,0-3,1.29,4.37,4.37,0,0,0-1.26,3.18,4.13,4.13,0,0,0,1.13,2.82,10.24,10.24,0,0,0,3.49,2.31l3.38,1.53a11.12,11.12,0,0,1,4.52,3.42,7.94,7.94,0,0,1,1.5,4.82,7.58,7.58,0,0,1-2.17,5.55,8.54,8.54,0,0,1-6.38,2.55,12,12,0,0,1-4.28-.83c-.94-.36-1.5-.57-1.69-.62a3,3,0,0,0-.73-.08,1.84,1.84,0,0,0-1.69,1h-.51Z" transform="translate(-640.05 -90.5)" />
        <path class="cls-2" d="M1099.21,897.54V919.4a18.21,18.21,0,0,1,2-2.14,8.69,8.69,0,0,1,2.07-1.34,11.9,11.9,0,0,1,5.3-1.15,11.77,11.77,0,0,1,6.22,1.5,5.86,5.86,0,0,1,2.41,2.73,13.47,13.47,0,0,1,.65,4.83v9.31l0,2.42a14.24,14.24,0,0,0,.25,3.17,3.27,3.27,0,0,0,1,1.67,6.61,6.61,0,0,0,3.29,1.31v.67h-14.1v-.67a9.59,9.59,0,0,0,2.4-.54,3.25,3.25,0,0,0,1.29-1.08,5.11,5.11,0,0,0,.8-2.17,27.08,27.08,0,0,0,.22-4v-10.1a15.08,15.08,0,0,0-.35-3.63,5.91,5.91,0,0,0-1.18-2.33,5.74,5.74,0,0,0-4.59-1.88q-7.71,0-7.71,12.18v5.1l0,2.36a14.24,14.24,0,0,0,.25,3.17,3.27,3.27,0,0,0,1,1.67,6.61,6.61,0,0,0,3.28,1.31v.67h-14.1v-.67a8.28,8.28,0,0,0,2.75-.72,3.28,3.28,0,0,0,1.34-1.58,6.93,6.93,0,0,0,.49-2.21c.1-1,.14-2.42.14-4.29v-25a43.56,43.56,0,0,0-.16-4.59,5.14,5.14,0,0,0-.7-2.17,3.24,3.24,0,0,0-1.31-1.27,6.21,6.21,0,0,0-2.2-.48v-.7Z" transform="translate(-640.05 -90.5)" />
        <path class="cls-2" d="M1140.61,915.93l9.19-1.15v18.38l0,2.42a13.53,13.53,0,0,0,.26,3.17,3.31,3.31,0,0,0,1,1.67,6.56,6.56,0,0,0,3.29,1.3v.67h-14.11v-.67A8.58,8.58,0,0,0,1143,941a3.3,3.3,0,0,0,1.34-1.57,6.86,6.86,0,0,0,.49-2.21c.1-1,.14-2.41.14-4.27v-7.84a43.3,43.3,0,0,0-.16-4.59,5,5,0,0,0-.7-2.14,3.44,3.44,0,0,0-1.31-1.29,5.78,5.78,0,0,0-2.2-.49Zm6.65-12.61a2.87,2.87,0,0,1-2.07-.8,2.84,2.84,0,0,1,0-4,3,3,0,0,1,4.1,0,2.84,2.84,0,0,1,0,4A2.76,2.76,0,0,1,1147.26,903.32Z" transform="translate(-640.05 -90.5)" />
    </g>
</svg>